<svg xmlns="http://www.w3.org/2000/svg" viewBox="0 0 50 50"><defs><style>.cls-1{fill:#807c9c;}</style></defs><title>Asset 9</title><g id="Layer_2" data-name="Layer 2"><g id="Layer_1-2" data-name="Layer 1"><path class="cls-1" d="M50,9.38V40.62A9.39,9.39,0,0,1,40.62,50H9.38a9,9,0,0,1-6.62-2.75A9,9,0,0,1,0,40.62V9.38A9,9,0,0,1,2.75,2.75,9,9,0,0,1,9.38,0H40.62a9,9,0,0,1,6.62,2.75A9,9,0,0,1,50,9.38Zm-8.34,6.32a14.5,14.5,0,0,1-3.94,1.11,6.65,6.65,0,0,0,3-3.81,13.58,13.58,0,0,1-4.36,1.66,6.5,6.5,0,0,0-5-2.15,6.84,6.84,0,0,0-6.84,6.84,6.24,6.24,0,0,0,.16,1.56,19.32,19.32,0,0,1-7.88-2.12,19.35,19.35,0,0,1-6.25-5,6.77,6.77,0,0,0-.94,3.45,6.44,6.44,0,0,0,3,5.7A8,8,0,0,1,9.38,22v.06A6.5,6.5,0,0,0,11,26.45a6.82,6.82,0,0,0,4,2.36,6.26,6.26,0,0,1-1.66.26,9,9,0,0,1-1.27-.13,6.94,6.94,0,0,0,2.43,3.39,6.49,6.49,0,0,0,4,1.37A13.52,13.52,0,0,1,10,36.62a13.31,13.31,0,0,1-1.63-.1,19.18,19.18,0,0,0,10.48,3.06,19.89,19.89,0,0,0,6.84-1.16,17.58,17.58,0,0,0,5.47-3.09A20.46,20.46,0,0,0,35,30.87a19.68,19.68,0,0,0,3.24-10.76,8.78,8.78,0,0,0,0-.88A13.27,13.27,0,0,0,41.66,15.69Z"/></g></g></svg>