<svg xmlns="http://www.w3.org/2000/svg" viewBox="0 0 50 50"><defs><style>.cls-1{fill:#807c9c;}</style></defs><title>Asset 7</title><g id="Layer_2" data-name="Layer 2"><g id="Layer_1-2" data-name="Layer 1"><path class="cls-1" d="M40.63,0a9,9,0,0,1,6.62,2.75A9,9,0,0,1,50,9.37V40.62A9.39,9.39,0,0,1,40.63,50H17a22.73,22.73,0,0,0,3.52-6.84q.29-1.11,1.73-6.8a5.57,5.57,0,0,0,2.39,2.18,7.66,7.66,0,0,0,3.66.91,11.64,11.64,0,0,0,9.62-4.8q3.73-4.8,3.73-12.16a12.87,12.87,0,0,0-1.14-5.29,14.68,14.68,0,0,0-3.14-4.52,14.87,14.87,0,0,0-5-3.16A17.08,17.08,0,0,0,26,8.33a21,21,0,0,0-6.33.93,16,16,0,0,0-5,2.49,17.54,17.54,0,0,0-3.5,3.56A14.71,14.71,0,0,0,9,19.48a13.94,13.94,0,0,0-.7,4.31,12.79,12.79,0,0,0,1.29,5.86,7.3,7.3,0,0,0,3.79,3.58.93.93,0,0,0,.76,0,.91.91,0,0,0,.47-.62q.33-1.43.49-2a1.41,1.41,0,0,0-.36-1.37,7.53,7.53,0,0,1-1.63-4.88A11.55,11.55,0,0,1,16.52,16a11.72,11.72,0,0,1,8.81-3.47q4.85,0,7.57,2.64A9.1,9.1,0,0,1,35.61,22a18.47,18.47,0,0,1-2.2,9.31q-2.2,3.84-5.65,3.84a4,4,0,0,1-3.16-1.42,3.64,3.64,0,0,1-.75-3.37q.26-1.11.86-3t1-3.32A10.13,10.13,0,0,0,26,21.65,4.06,4.06,0,0,0,25.18,19a3,3,0,0,0-2.46-1.06,4.1,4.1,0,0,0-3.37,1.84A7.34,7.34,0,0,0,18,24.32a8.91,8.91,0,0,0,.78,3.94L15.56,41.73A24.64,24.64,0,0,0,15.33,50h-6a9,9,0,0,1-6.62-2.75A9,9,0,0,1,0,40.62V9.37A9,9,0,0,1,2.75,2.75,9,9,0,0,1,9.37,0Z"/></g></g></svg>