<svg xmlns="http://www.w3.org/2000/svg" viewBox="0 0 50 50"><defs><style>.cls-1{fill:#807c9c;}</style></defs><title>Asset 11</title><g id="Layer_2" data-name="Layer 2"><g id="Layer_1-2" data-name="Layer 1"><path class="cls-1" d="M47.25,2.75A9.05,9.05,0,0,0,40.62,0H9.38A9.05,9.05,0,0,0,2.75,2.75,9.07,9.07,0,0,0,0,9.38V40.63a9,9,0,0,0,2.75,6.62A9.05,9.05,0,0,0,9.38,50H40.62A9.39,9.39,0,0,0,50,40.63V9.38A9.07,9.07,0,0,0,47.25,2.75ZM25,38.5A13.5,13.5,0,1,1,38.5,25,13.49,13.49,0,0,1,25,38.5Zm9.2-17.35A22.87,22.87,0,0,0,23,18.55a22.62,22.62,0,0,0-6.41.83A1.32,1.32,0,0,0,16.94,22a2.7,2.7,0,0,0,.69-.15A20.89,20.89,0,0,1,23,21.16a20.56,20.56,0,0,1,9.91,2.27,1.27,1.27,0,0,0,2-1A1.28,1.28,0,0,0,34.2,21.15Zm-1.82,4.52a18.94,18.94,0,0,0-9.64-2.49,18.91,18.91,0,0,0-5.32.74A1.08,1.08,0,0,0,16.58,25a1.06,1.06,0,0,0,1.06,1.06,2.34,2.34,0,0,0,.65-.15,16.88,16.88,0,0,1,4.41-.57,17.13,17.13,0,0,1,8.57,2.17,1.21,1.21,0,0,0,.68.24,1.06,1.06,0,0,0,1-1.06A1.11,1.11,0,0,0,32.38,25.67Zm-1.6,4a15,15,0,0,0-7.85-2,22.43,22.43,0,0,0-5,.6.87.87,0,0,0-.74.93A.84.84,0,0,0,18,30a4.14,4.14,0,0,0,.66-.14,21.38,21.38,0,0,1,4.26-.47,13.6,13.6,0,0,1,7,1.81,1,1,0,0,0,.57.2.84.84,0,0,0,.84-.84A.9.9,0,0,0,30.78,29.63Z"/></g></g></svg>