<svg xmlns="http://www.w3.org/2000/svg" viewBox="0 0 50 50"><defs><style>.cls-1{fill:#1d214d;}</style></defs><title>Asset 5</title><g id="Layer_2" data-name="Layer 2"><g id="Layer_1-2" data-name="Layer 1"><path class="cls-1" d="M40.62,0a9,9,0,0,1,6.62,2.75A9,9,0,0,1,50,9.37V40.62A9.39,9.39,0,0,1,40.62,50H34.51V30.63H41l1-7.55H34.51V18.26a4.17,4.17,0,0,1,.76-2.73,3.8,3.8,0,0,1,3-.91l4,0V7.85a43.55,43.55,0,0,0-5.79-.29,9.67,9.67,0,0,0-7.08,2.6q-2.65,2.6-2.65,7.36v5.57H20.18v7.55h6.51V50H9.37a9,9,0,0,1-6.62-2.75A9,9,0,0,1,0,40.62V9.37A9,9,0,0,1,2.75,2.75,9,9,0,0,1,9.37,0Z"/></g></g></svg>