<?xml version="1.0" ?><!DOCTYPE svg  PUBLIC '-//W3C//DTD SVG 1.1//EN'  'http://www.w3.org/Graphics/SVG/1.1/DTD/svg11.dtd'><svg height="2048px" style="shape-rendering:geometricPrecision; text-rendering:geometricPrecision; image-rendering:optimizeQuality; fill-rule:evenodd; clip-rule:evenodd" viewBox="0 0 2048 2048" width="2048px" xml:space="preserve" xmlns="http://www.w3.org/2000/svg" xmlns:xlink="http://www.w3.org/1999/xlink"><defs><style type="text/css">
   <![CDATA[
    .fil1 {fill:none}
    .fil0 {fill:#ffffff}
   ]]>
  </style></defs><g id="Layer_x0020_1"><path class="fil0" d="M1775.94 1024c-0.0011811,-207.698 -84.1489,-395.697 -220.195,-531.745 -136.086,-136.086 -324.089,-220.257 -531.743,-220.257 -207.654,0 -395.658,84.1713 -531.743,220.257 -136.086,136.087 -220.257,324.086 -220.257,531.745 0,207.654 84.1713,395.658 220.257,531.743 136.086,136.086 324.089,220.257 531.743,220.257 207.657,0 395.658,-84.1713 531.745,-220.257 136.086,-136.086 220.257,-324.089 220.257,-531.743l-0.0625985 0zm-608.659 -342.561c69.7193,11.5665 138.624,28.4965 206.509,51.9343 28.024,9.67324 55.2685,20.4012 81.626,32.3173 26.8146,12.1228 52.9335,25.5024 78.2658,40.2827 10.5874,6.17953 19.5532,13.7717 26.6717,22.9949 7.19292,9.31772 12.3142,20.1118 15.1158,32.5784 0.959056,4.25906 1.36181,8.0941 1.76457,11.928 0.190158,1.82599 0.377953,3.62126 0.462992,4.27677l0.125197 2.06221c-0.0649607,15.7028 -4.10079,29.9847 -10.9937,42.1689 -7.44213,13.1551 -18.2032,23.8323 -30.8906,31.1977 -12.6484,7.34528 -27.2658,11.3988 -42.4595,11.3362 -14.0882,-0.0578741 -28.5898,-3.65315 -42.3626,-11.4461 -15.7878,-8.93505 -31.5756,-17.3587 -47.3681,-25.1103 -15.7937,-7.7504 -32.0114,-15.039 -48.7607,-21.7547 -33.1595,-13.2945 -66.7997,-24.3803 -100.823,-33.6626 -33.8457,-9.23387 -68.628,-16.7953 -104.126,-23.0575 -24.4772,-4.31575 -48.913,-7.89449 -73.2875,-10.7504 -24.9768,-2.92677 -49.8626,-5.12481 -74.6457,-6.61182 -26.1673,-1.57205 -52.0016,-2.44961 -77.4768,-2.59134 -25.604,-0.141732 -51.4465,0.442914 -77.5359,1.79291 -29.3551,1.51772 -58.8166,3.91654 -88.4221,7.52363 -29.1827,3.55512 -58.2107,8.2878 -87.0414,14.5146 -18.7654,4.05237 -37.3477,9.0378 -55.9122,14.0173l-7.78465 2.08583c-7.71497,2.06103 -15.5528,3.22677 -23.589,3.31536 -8.02914,0.0885827 -16.0524,-0.95315 -24.1134,-3.31063 -17.6917,-5.17678 -32.6327,-15.6898 -43.2733,-29.5382 -10.5839,-13.7788 -16.904,-30.8988 -17.426,-49.3807 -0.512599,-18.1689 4.88741,-35.6918 14.8441,-50.0634 9.87048,-14.2476 24.15,-25.4327 41.5406,-31.1646 10.3512,-3.41221 21.1949,-6.55394 32.3292,-9.51497 10.761,-2.86299 21.5457,-5.47205 32.3091,-7.95945 26.9256,-6.22441 53.7993,-11.224 80.628,-15.2658 26.3646,-3.97205 53.5241,-7.10788 81.2528,-9.6378 28.9063,-2.63858 57.8197,-4.38426 86.7261,-5.25827 28.8792,-0.875198 57.7878,-0.884646 86.7095,-0.056693 71.2879,2.03977 141.839,8.26536 211.412,19.8083zm-310.821 233.684c66.554,-2.52638 132.338,0.516142 197.335,9.27048 65.0292,8.75788 129.294,23.2394 192.77,43.5839 32.1461,10.3004 63.6378,22.2166 94.3938,35.8925 30.8646,13.7244 60.8327,29.1366 89.8123,46.3725 2.13189,1.26378 5.19685,3.13937 8.23465,4.99725l0.446457 0.272835c17.9492,10.9642 28.4811,27.2292 32.7154,44.5229 4.70552,19.2177 1.41614,39.7855 -8.24292,55.6642 -10.402,17.0917 -26.4945,28.3146 -44.5264,32.7378 -17.7662,4.35827 -37.3595,1.99488 -55.0819,-8.00079l-12.5339 -7.06654c-11.4685,-6.55985 -22.9429,-13.1256 -34.6299,-19.0807 -36.4595,-18.5835 -73.9512,-33.8776 -112.293,-46.4032 -38.5855,-12.6036 -78.0438,-22.4445 -118.191,-30.0437 -31.1256,-5.89134 -62.2441,-10.265 -93.7642,-13.1823 -31.7315,-2.9374 -64.0099,-4.44449 -97.2497,-4.58741 -42.6284,0.18189 -85.9052,3.01772 -129.294,9.11457 -40.3335,5.66693 -80.654,14.1697 -120.502,25.9961 -8.28898,2.45906 -16.7126,3.7689 -25.2366,3.64134 -8.86418,-0.132284 -17.6102,-1.77992 -26.152,-5.24056 -14.0032,-5.67166 -25.5532,-15.5008 -33.476,-27.6036 -7.94646,-12.1394 -12.2622,-26.6504 -11.7638,-41.6351 0.514961,-15.5362 5.60197,-30.1063 14.3646,-41.9126 8.65749,-11.6658 20.8701,-20.6232 35.7945,-25.1788 12.091,-3.69213 24.1217,-7.10197 36.0709,-10.2378 12.1276,-3.18189 24.5114,-6.17008 37.1079,-8.96694 30.6792,-6.81497 61.1623,-11.9752 91.4705,-15.6839 30.2587,-3.70276 61.0949,-6.05434 92.4213,-7.24253zm52.4587 237.75c49.376,0.518504 98.0044,4.08426 145.741,11.4295 48.0189,7.3878 95.5442,18.6284 142.504,34.4658 25.839,8.713 51.1288,18.7217 75.8445,30.0544 24.7229,11.3362 48.8079,23.9669 72.2327,37.917l0.0106299 -0.0188977 1.14213 0.677953c3.8374,2.27717 7.69489,4.56851 12.0579,7.8815 12.5469,9.52914 20.452,22.8862 23.1992,37.2366 2.75197,14.3776 0.373229,29.7402 -7.65001,43.2319 -7.89095,13.2756 -20.1685,22.565 -34.0134,26.9327 -13.7788,4.34646 -29.1484,3.85158 -43.3181,-2.40591 -4.23071,-1.86496 -8.0882,-4.18111 -11.928,-6.48426l-1.89567 -1.13268 -0.0106299 0.0188977c-38.087,-22.5756 -77.6138,-40.8319 -118.473,-55.0937 -40.8485,-14.2571 -83.2442,-24.5823 -127.065,-31.2945 -27.1406,-4.15512 -54.1063,-6.94134 -80.8938,-8.40473 -27.15,-1.48228 -54.2953,-1.66654 -81.4194,-0.601182 -35.2548,1.38543 -70.3406,4.53189 -105.26,9.24213 -35.0575,4.72914 -69.7831,11.002 -104.209,18.6236 -3.8067,0.839764 -7.69607,1.64764 -11.7165,2.27244 -4.2815,0.664961 -8.65394,1.11378 -13.1221,1.16221 -14.6362,0.159449 -28.1646,-4.94646 -38.7107,-13.6134 -10.6465,-8.74961 -18.2374,-21.1595 -20.85,-35.4685 -2.67284,-14.6492 -0.315355,-28.95 6.11811,-41.0103 6.49843,-12.1819 17.074,-21.9756 30.7642,-27.4784 2.70118,-1.08543 5.47323,-1.97126 8.26772,-2.74134l0.0625985 0c2.80158,-0.77126 5.17559,-1.32874 7.44449,-1.8378 28.8827,-6.48308 57.9591,-12.1878 87.2564,-16.904 29.6362,-4.77048 59.1083,-8.50276 88.3607,-10.9772 21.7382,-1.83898 44.9847,-2.97874 68.2288,-4.11614 9.65079,-0.472441 19.3028,-0.947245 30.3,-1.56378l1.00039 0z"/></g><rect class="fil1" height="2048" width="2048"/></svg>