<svg xmlns="http://www.w3.org/2000/svg" viewBox="0 0 50 50"><defs><style>.cls-1{fill:#807c9c;}</style></defs><title>Asset 8</title><g id="Layer_2" data-name="Layer 2"><g id="Layer_1-2" data-name="Layer 1"><path class="cls-1" d="M50,9.38V40.62A9.4,9.4,0,0,1,40.62,50H9.38a9,9,0,0,1-6.63-2.75A9,9,0,0,1,0,40.62V9.38A9,9,0,0,1,2.75,2.75,9,9,0,0,1,9.38,0H40.62a9,9,0,0,1,6.62,2.75A9,9,0,0,1,50,9.38ZM42.05,16.6q.33-7-5.24-7.22-7.52-.26-10.15,8.5a6.75,6.75,0,0,1,2.67-.62q2.77,0,2.41,3.13-.14,1.85-2.41,5.44t-3.42,3.58q-1.4,0-2.67-5.5-.42-1.76-1.47-8.3-1-6.15-5.21-5.76-1.92.23-5.34,3.26L8.59,15.43,6,17.77,7.65,20a12.5,12.5,0,0,1,2.83-1.69q1.86,0,3.48,5.82.48,1.79,1.46,5.35l1.47,5.35q2.21,5.83,5.34,5.83,5.11,0,12.47-9.57Q41.86,21.84,42.05,16.6Z"/></g></g></svg>