<svg xmlns="http://www.w3.org/2000/svg" viewBox="0 0 50 50"><defs><style>.cls-1{fill:#1d214d;}</style></defs><title>Asset 6</title><g id="Layer_2" data-name="Layer 2"><g id="Layer_1-2" data-name="Layer 1"><path class="cls-1" d="M38,18.55a8.82,8.82,0,0,0-.55-3,5.26,5.26,0,0,0-3-3,8.82,8.82,0,0,0-3-.55c-1.69-.08-2.19-.1-6.45-.1s-4.76,0-6.45.1a8.82,8.82,0,0,0-3,.55,5.26,5.26,0,0,0-3,3,8.82,8.82,0,0,0-.55,3c-.08,1.69-.1,2.19-.1,6.45s0,4.76.1,6.45a8.82,8.82,0,0,0,.55,3,5.26,5.26,0,0,0,3,3,8.82,8.82,0,0,0,3,.55c1.69.08,2.19.1,6.45.1s4.76,0,6.45-.1a8.82,8.82,0,0,0,3-.55,5.26,5.26,0,0,0,3-3,8.82,8.82,0,0,0,.55-3c.08-1.69.1-2.19.1-6.45S38.06,20.24,38,18.55ZM25,33.19A8.19,8.19,0,1,1,33.19,25,8.19,8.19,0,0,1,25,33.19ZM33.51,18.4a1.91,1.91,0,1,1,1.92-1.91A1.92,1.92,0,0,1,33.51,18.4ZM25,19.68A5.32,5.32,0,1,0,30.32,25,5.32,5.32,0,0,0,25,19.68Zm13-1.13a8.82,8.82,0,0,0-.55-3,5.26,5.26,0,0,0-3-3,8.82,8.82,0,0,0-3-.55c-1.69-.08-2.19-.1-6.45-.1s-4.76,0-6.45.1a8.82,8.82,0,0,0-3,.55,5.26,5.26,0,0,0-3,3,8.82,8.82,0,0,0-.55,3c-.08,1.69-.1,2.19-.1,6.45s0,4.76.1,6.45a8.82,8.82,0,0,0,.55,3,5.26,5.26,0,0,0,3,3,8.82,8.82,0,0,0,3,.55c1.69.08,2.19.1,6.45.1s4.76,0,6.45-.1a8.82,8.82,0,0,0,3-.55,5.26,5.26,0,0,0,3-3,8.82,8.82,0,0,0,.55-3c.08-1.69.1-2.19.1-6.45S38.06,20.24,38,18.55ZM25,33.19A8.19,8.19,0,1,1,33.19,25,8.19,8.19,0,0,1,25,33.19ZM33.51,18.4a1.91,1.91,0,1,1,1.92-1.91A1.92,1.92,0,0,1,33.51,18.4ZM25,19.68A5.32,5.32,0,1,0,30.32,25,5.32,5.32,0,0,0,25,19.68ZM47.25,2.75A9.05,9.05,0,0,0,40.62,0H9.38A9.05,9.05,0,0,0,2.75,2.75,9.07,9.07,0,0,0,0,9.38V40.63a9,9,0,0,0,2.75,6.62A9.05,9.05,0,0,0,9.38,50H40.62A9.39,9.39,0,0,0,50,40.63V9.38A9.07,9.07,0,0,0,47.25,2.75Zm-6.4,28.83a11.44,11.44,0,0,1-.74,3.87,8.18,8.18,0,0,1-4.66,4.66,11.44,11.44,0,0,1-3.87.74c-1.71.08-2.25.1-6.58.1s-4.87,0-6.58-.1a11.44,11.44,0,0,1-3.87-.74,7.6,7.6,0,0,1-2.82-1.84,7.6,7.6,0,0,1-1.84-2.82,11.44,11.44,0,0,1-.74-3.87C9.07,29.87,9,29.33,9,25s0-4.87.1-6.58a11.44,11.44,0,0,1,.74-3.87,7.6,7.6,0,0,1,1.84-2.82,7.6,7.6,0,0,1,2.82-1.84,11.44,11.44,0,0,1,3.87-.74C20.13,9.07,20.67,9,25,9s4.87,0,6.58.1a11.44,11.44,0,0,1,3.87.74,7.6,7.6,0,0,1,2.82,1.84,7.6,7.6,0,0,1,1.84,2.82,11.44,11.44,0,0,1,.74,3.87c.08,1.71.1,2.25.1,6.58S40.93,29.87,40.85,31.58Zm-3.42-16a5.26,5.26,0,0,0-3-3,8.82,8.82,0,0,0-3-.55c-1.69-.08-2.19-.1-6.45-.1s-4.76,0-6.45.1a8.82,8.82,0,0,0-3,.55,5.26,5.26,0,0,0-3,3,8.82,8.82,0,0,0-.55,3c-.08,1.69-.1,2.19-.1,6.45s0,4.76.1,6.45a8.82,8.82,0,0,0,.55,3,5.26,5.26,0,0,0,3,3,8.82,8.82,0,0,0,3,.55c1.69.08,2.19.1,6.45.1s4.76,0,6.45-.1a8.82,8.82,0,0,0,3-.55,5.26,5.26,0,0,0,3-3,8.82,8.82,0,0,0,.55-3c.08-1.69.1-2.19.1-6.45s0-4.76-.1-6.45A8.82,8.82,0,0,0,37.43,15.59ZM25,33.19A8.19,8.19,0,1,1,33.19,25,8.19,8.19,0,0,1,25,33.19ZM33.51,18.4a1.91,1.91,0,1,1,1.92-1.91A1.92,1.92,0,0,1,33.51,18.4ZM25,19.68A5.32,5.32,0,1,0,30.32,25,5.32,5.32,0,0,0,25,19.68Zm13-1.13a8.82,8.82,0,0,0-.55-3,5.26,5.26,0,0,0-3-3,8.82,8.82,0,0,0-3-.55c-1.69-.08-2.19-.1-6.45-.1s-4.76,0-6.45.1a8.82,8.82,0,0,0-3,.55,5.26,5.26,0,0,0-3,3,8.82,8.82,0,0,0-.55,3c-.08,1.69-.1,2.19-.1,6.45s0,4.76.1,6.45a8.82,8.82,0,0,0,.55,3,5.26,5.26,0,0,0,3,3,8.82,8.82,0,0,0,3,.55c1.69.08,2.19.1,6.45.1s4.76,0,6.45-.1a8.82,8.82,0,0,0,3-.55,5.26,5.26,0,0,0,3-3,8.82,8.82,0,0,0,.55-3c.08-1.69.1-2.19.1-6.45S38.06,20.24,38,18.55ZM25,33.19A8.19,8.19,0,1,1,33.19,25,8.19,8.19,0,0,1,25,33.19ZM33.51,18.4a1.91,1.91,0,1,1,1.92-1.91A1.92,1.92,0,0,1,33.51,18.4ZM25,19.68A5.32,5.32,0,1,0,30.32,25,5.32,5.32,0,0,0,25,19.68Zm13-1.13a8.82,8.82,0,0,0-.55-3,5.26,5.26,0,0,0-3-3,8.82,8.82,0,0,0-3-.55c-1.69-.08-2.19-.1-6.45-.1s-4.76,0-6.45.1a8.82,8.82,0,0,0-3,.55,5.26,5.26,0,0,0-3,3,8.82,8.82,0,0,0-.55,3c-.08,1.69-.1,2.19-.1,6.45s0,4.76.1,6.45a8.82,8.82,0,0,0,.55,3,5.26,5.26,0,0,0,3,3,8.82,8.82,0,0,0,3,.55c1.69.08,2.19.1,6.45.1s4.76,0,6.45-.1a8.82,8.82,0,0,0,3-.55,5.26,5.26,0,0,0,3-3,8.82,8.82,0,0,0,.55-3c.08-1.69.1-2.19.1-6.45S38.06,20.24,38,18.55ZM25,33.19A8.19,8.19,0,1,1,33.19,25,8.19,8.19,0,0,1,25,33.19ZM33.51,18.4a1.91,1.91,0,1,1,1.92-1.91A1.92,1.92,0,0,1,33.51,18.4ZM25,19.68A5.32,5.32,0,1,0,30.32,25,5.32,5.32,0,0,0,25,19.68Z"/></g></g></svg>