<svg id="Layer_1" data-name="Layer 1" xmlns="http://www.w3.org/2000/svg" viewBox="0 0 520.84 111.75" style="fill:#ffffff;" ><title>matt-corby-web-use-only-logo</title><path d="M50.49,61.14a.87.87,0,0,0-.35.35,52.67,52.67,0,0,1-.12,6,12.45,12.45,0,0,1-.69,2.32c-.12.12.12.23.35.58,0,2.43-.35,5.79-.35,8.57a7.39,7.39,0,0,0-.23,1c0,.46.23.81.23,1.27,0,2.2.35,4.4,0,6.6a15,15,0,0,1,.58,2.43c0,.58-.23,1.51-.23,2.2,0,.23.35.69.35,1s-.58,1-.58,1.51.81,2,.81,2.43a6.2,6.2,0,0,1-.46,1.85c.12.35.46,1.51-.58,2,0,.12.23.23.46.46v1c-.35.23-1,.12-1.51.12-.23.35-.23.93-.46,1.39-.35.81-.93.69-.93,1.74-1,.69-2.9.81-4.4,1-.12-.58-1.16-2-1.51-2s0,.23-.46.23-.58-.69-.81-.81a21.07,21.07,0,0,0-2.2-.93l-.69-1.74c-.12-.23-.58-.58-.69-.81a4.9,4.9,0,0,1-.58-2.32c-.35-2.08-2.32-14.13-2.32-19.57V77a.64.64,0,0,0,.58-.23c-.12-2.43.58-4.75-.23-7.18-.12-.46.23-1.16,0-1.74a27.32,27.32,0,0,0,.23-4.4s.35,0,.46-.12c-.12.12-.12.12.12.46.69-.35.69-2,.58-3.13-.12-.23-.35-.58-.46-.58A26.43,26.43,0,0,0,34.62,57c0-1,.81-2.08.81-3l.35.35c.46-.58-.46-1.16-.46-1.39a17.88,17.88,0,0,1,.58-2c1-.69.46-2,.35-2.43.12-.12-.35.12-.35-.35s.23-.46.23-.58a40.1,40.1,0,0,0,.46-4.86,12,12,0,0,1,0-2.9,22.1,22.1,0,0,0,.58-3c0-.46-.46-5-.46-7.41l-.23-.35c-.35,1.16-.58,2.43-.93,3.59a15.1,15.1,0,0,1-.23,5.1,5.19,5.19,0,0,1,.12,1.39c-.58,2.08-.58,4.17-1.74,6.48-.12.35.12,1.39-.12,2a13.33,13.33,0,0,1-.69,2c0,.23.12.58.12,1-.12.69-1,1.16-1.16,2.2s-.35,2.55-.35,3a10.64,10.64,0,0,0,1,2.78v1.74a18.3,18.3,0,0,0-2.55,0c-.46,0-.93-.93-1.27-.93-.58,0-.81.12-1.27.12-1.51,0-2.9-1.85-4.17-3-.23-.35-.46-1-.69-1.39s-.58-.23-.93-.69c-1.39-2.08-3.36-5.44-4.86-7.3-.35-.58-1-1.74-1.74-2.78-.23-.35,0-.81-.35-1.16C13.43,42,12,40.3,11.93,39.14c-1.39-2.2-2.9-4.63-4.28-7.06A94.73,94.73,0,0,0,8.8,42.27l-.23.46c.12.58.58,1.39.69,2.08.69,4.75,0,9.38.23,13.78.12,2.66,1,7.76,1,8.34V77.24c0,.46.58.58.93.46a19.48,19.48,0,0,0-.35,3.13c0,.46.46,1.39.58,2.08,0,1.51-.23,4.17.81,5.67a2.53,2.53,0,0,0,.58,2.78c-1.27.46,0,1.27-.23,2.55-.12.12-.35.23-.46.46-.12,1.85-.35,4.28-.35,6.37-.58-.46-.46-.58-.81-.93-.46.12-2.43,0-1.85-1.62-.23,0-.58.12-.81-.12-.23.23-.12.35-.12.93v1c-.35-.12-1.16-.81-1.85-1.16l-.46.46c-.23-.23-.58-.93-.81-1.16a5.38,5.38,0,0,0-1-.35c-.23-.12-.12-.58-.69-.81l-.23.46a1.25,1.25,0,0,1,.35-.81c0-.12.23-.23-.23-.23-1.27,0-2.9-6.72-3.24-9.38L.58,52.8c0-3.36.35-8.8.35-13.9,0-.46.35-.58.35-1.16L0,23.28c0-.46.35-3.36.46-4.75,0-.23.46-.69.69-1.16l.12.35c.46.12,1-.35,1.62-.35s.35.46.58.46a7,7,0,0,0,.58-3.36c0-.23.23-.46.23-.69a8,8,0,0,0,2.08,1.39c.46,0,.23-.23.69-.23s1,1.16,1.74,1.39c.93.35,2.9.35,3.47,1.62.35.93,2.08,6.95,3.24,10,.23.81,1.27,2,1.39,2.66.12.23.46.35.58.46,1.27,1.74,2.9,4.05,4.05,6a31.71,31.71,0,0,0,1.74,3.36c.35.46.81.93,1.39,1.62l2.78-15.86c1.27-3.24,2.78-6.95,3.82-9.84a58.37,58.37,0,0,1,2.43-5.91c.23-.81.23-2.08.46-3a.68.68,0,0,1,.46-.12,21.83,21.83,0,0,1,1.62-2.78,2.44,2.44,0,0,0,1.51,1.39c.46,0,.23-.23.69-.23s.81.46,1.39.69c.93,1.62,1.74,3.36,2.66,5,.12.23-.35.46-.23.81.46.81.69,2,1.16,2.9,2.78,5,3.24,9.5,4.52,14.36.12.12-.12.58-.12.81,1.85,3.59,1.39,8,2,11.7a8.4,8.4,0,0,1-.23,3.36,14.85,14.85,0,0,1,.58,3.13c.12.35-.23.69-.23,1.16s.46.93.35,1.62a17.5,17.5,0,0,0-.35,2.43,2.73,2.73,0,0,0,.58,1.16ZM21.65,33.93a.91.91,0,0,0-.23-.58c.23,0,.35-.35.58-.35A1.85,1.85,0,0,1,21.65,33.93Zm13,27-.35.46L34,61.26l.23-.46Zm.46-56.16L35,5.1l-.69-.35.12-.35Zm1.51,24.09v-.69h-.35v.69Z"/><path d="M96.23,101.09c-.12.23-.35.23-.46.46a52.45,52.45,0,0,0,.23,5.79c.12.35-.46.81-.46,1.16a22.23,22.23,0,0,1,.35,2.55,3,3,0,0,1-1.51.69c-.35,0-1.51-.35-2.2-.46-2.55-.69-3.82-3.71-4.63-5.33-1.39-2.66-4.86-11.46-7.18-17.37-1.16-2.78-2.9-7.3-3.13-10.42A2,2,0,0,0,76.89,77a2.19,2.19,0,0,0-1.74-1c-.69,0-4.4.93-4.52,1.51a36.4,36.4,0,0,1-.35,6.14c-.23.23-.23.35,0,4.63-.12,1-.81,3.24-.81,3.71s.58,3.94.81,5.1a6.74,6.74,0,0,1,.58,1.85,11.77,11.77,0,0,1-.23,2.66,8,8,0,0,1-2.78,4.05,18.77,18.77,0,0,1-5.44,1.62,6.34,6.34,0,0,1-2.66-1.51c.12-.12-.23-.58-.35-.93a13.31,13.31,0,0,0-.12-2.08,2.55,2.55,0,0,1-.35-.58,1.19,1.19,0,0,0,.12-.46c0-.12-.46-.23-.46-.81,0-1,.46-1,.81-1.74a31.06,31.06,0,0,0-.23-4.63c0-.23.23-.46.23-.69.12-2,.58-4.63.69-6.37.23-3.71.35-6.37.93-10.19a14.08,14.08,0,0,0,0-3.13,15.07,15.07,0,0,0,.35-1.51c0-.46-.12-.23-.23-.35-.23-.58.23-1.85-.46-2.2A2.75,2.75,0,0,0,61,68.9c0-.69-.23-.58-.81-.93,1.85.35,1.27-2.43,1.39-3.36l.58-20c0-.35.46-2.78.69-4.17a144.86,144.86,0,0,1,3.36-14.94c.46-2,1.74-5.79,2.32-8.34.35-2,.58-5,1.62-7.53a5,5,0,0,1,1.62.46,2.24,2.24,0,0,0,.35-1.16c0-.46,1.16-.93,1.51-1a6.77,6.77,0,0,1,2.08-.46,9.87,9.87,0,0,1,2.55.93A31.2,31.2,0,0,1,82,9.5c.12.12.12.58.35.69a7.46,7.46,0,0,1,2.9,4.17c.12.35.58.81.69,1.16a32.55,32.55,0,0,1,.69,3.24c1.16,2.78.81,6.48.93,8.34,0,.35.35.81.46,1.16a5.64,5.64,0,0,1-.12,1.39c.12.23.12.46.23.58.12,3,.23,6.25.58,9.5,0,.46.35.81.46,1.27a28.59,28.59,0,0,1,.58,4.4,17.38,17.38,0,0,1,0,3.47C90.44,52.11,91,56.63,91.36,60c.23,2.78.12,7.06.46,10.65.23,3.82.69,7.87,1.27,11.7a15,15,0,0,0,.93,2c.46,1.74,1.16,3.13.69,4.28a7.39,7.39,0,0,1,.69,2.66c.35,2.43.93,7.18.93,7.64A17.3,17.3,0,0,1,96.23,101.09ZM76.08,60.56c.12-5.44-.58-13.78-1-19a8.18,8.18,0,0,0-1-3.13,52.76,52.76,0,0,0-.58,7.18,38.86,38.86,0,0,1-.81,6.83c-.23,1.16-.23,2.43-.46,3.47s-.23,2-.35,2.78c-.12.23-.23-.23-.23.23s.35.81.46,1.27a7.13,7.13,0,0,1,.12,1.51v4.52A8.2,8.2,0,0,0,75.61,68c.58,0,.69-.93.69-1.51S76.08,61.14,76.08,60.56ZM92.52,55a1.62,1.62,0,0,1-.81,1c0-.23-.23-.69,0-1Z"/><path d="M156.44,12.51c-1.16,2-1.85,1-2.78,1.51a3.85,3.85,0,0,0-2,1.85,7.65,7.65,0,0,1-1.62.12c-.46,0-1.27-.23-1.74-.23s-5.1,1.16-5.56,1.16-5-.23-7.87-.35a1.51,1.51,0,0,0-.69.93,23.25,23.25,0,0,0-.46,5.1c0,.46.35.69.23,1.16-.35,3.13,1.27,6.14.69,8.8a4.88,4.88,0,0,1,1,2.9c-.35,4.75,1.85,9.61,1.85,14.59l.58,16.79c0,.46.81,7.18.81,7.64v5.1a18.26,18.26,0,0,1-.23,3.24c.35,2.32-.12,6.25-.12,8.45a31.65,31.65,0,0,0-.93,5.33c-.12.46.12,1.39,0,2-.35,1.74-1.51,9.15-2.55,9.15a6,6,0,0,0-1.27.23c-.69.12-1.85.81-2.43.81s-1.39-.46-2.08-.23a13.28,13.28,0,0,1-1.16-2.66c-1.16-8-2.32-13.78-1.62-20.38.12-1.39.35-7.87.23-11.12-.12-8.45-.93-12.62-1.27-19.57-.12-2.55-.12-5.67-.35-8.45-.46-7.3-1.27-21.54-1.27-22V18.64c0-.46-.23-2.08-.35-3.36,0,0,0-.12-.23-.35a26.88,26.88,0,0,1-7.06-.69,73.93,73.93,0,0,1-9.61-3c-.12-.23,0-.35-.23-.46-2.2-.23-3.47-2.43-4.75-3.36-.93-.81-1-2.9-1-4.28,0-.35-.58-1-.58-1.39,0-.12.35-.12.23-1.16L127.6,0c2.32.23,7.06.58,7.53.58,6.25,0,18.53,2.9,21.19,7.3,0,.93.23,2.66.23,3.13S156.67,12.16,156.44,12.51Z"/><path d="M218,12.51c-1.16,2-1.85,1-2.78,1.51a3.85,3.85,0,0,0-2,1.85,7.65,7.65,0,0,1-1.62.12c-.46,0-1.27-.23-1.74-.23s-5.1,1.16-5.56,1.16-5-.23-7.87-.35a1.51,1.51,0,0,0-.69.93,23.25,23.25,0,0,0-.46,5.1c0,.46.35.69.23,1.16-.35,3.13,1.27,6.14.69,8.8a4.88,4.88,0,0,1,1,2.9C197,40.18,199.17,45,199.17,50l.58,16.79c0,.46.81,7.18.81,7.64v5.1a18.26,18.26,0,0,1-.23,3.24c.35,2.32-.12,6.25-.12,8.45a31.65,31.65,0,0,0-.93,5.33c-.12.46.12,1.39,0,2-.35,1.74-1.51,9.15-2.55,9.15a6,6,0,0,0-1.27.23c-.69.12-1.85.81-2.43.81s-1.39-.46-2.08-.23a13.28,13.28,0,0,1-1.16-2.66c-1.16-8-2.32-13.78-1.62-20.38.12-1.39.35-7.87.23-11.12-.12-8.45-.93-12.62-1.27-19.57-.12-2.55-.12-5.67-.35-8.45-.46-7.3-1.27-21.54-1.27-22V18.64c0-.46-.23-2.08-.35-3.36,0,0,0-.12-.23-.35a26.88,26.88,0,0,1-7.06-.69,73.93,73.93,0,0,1-9.61-3c-.12-.23,0-.35-.23-.46-2.2-.23-3.47-2.43-4.75-3.36-.93-.81-1-2.9-1-4.28,0-.35-.58-1-.58-1.39,0-.12.35-.12.23-1.16L189.21,0c2.32.23,7.06.58,7.53.58,6.25,0,18.53,2.9,21.19,7.3,0,.93.23,2.66.23,3.13S218.27,12.16,218,12.51Z"/><path d="M300.72,52.69a8,8,0,0,1-1.27,3.47c-.7.93-3.13,3.94-3.82,3.94h-2.08a17.32,17.32,0,0,1-3.82-1.39c1-.12,1.85-2.55,1.85-3,.12-.93.69-2,.81-3,.12-1.39.46-4.05.46-4.52s-.46-2-.46-3.13a10,10,0,0,0,0-1.85c0-.35-.46-.69-.46-1.16-.12-2,.23-4.52-.81-5.91a3.73,3.73,0,0,0,0-1.62c0-.12-.23-.58-.35-.58,0-.93-.12-3-.12-3.47V26.87c-.12-.12,0-.12-.46-.12-1.62,0-3.47,2.66-4.4,4.17-.35.58-.81,1.39-1,1.85a13.75,13.75,0,0,0-1.62,2.55c-1,3.36-2.55,8.8-2.55,13.09a97.15,97.15,0,0,0,.81,10.31c.23,2,2,11.35,2.89,14.94.23,1.16,1.51,5.33,2,7.41.23.69.81,1.51,1.16,2.32a8.92,8.92,0,0,0,3,4.75c2.78-2.32,4.05-8,6.25-11.93a5.35,5.35,0,0,0,.81.81c.23,1.16.23,3.13.35,4.52.12.23.35.23.35.69a7.72,7.72,0,0,1-.35,1.74c-.58,1.62-1.27,3.94-1.74,5.67-.23.46.23,1.39.12,2a1.17,1.17,0,0,1-.7,1c0,.23.23.35.35.46a9.77,9.77,0,0,0-.46,2,4.69,4.69,0,0,1,0,1.27c-1.27.81-2.78,1.85-4.29,2.66a2.22,2.22,0,0,0,0,1.51c-.81-.12-1.5-.46-2.08-.46s-.7,1-.81,1.39c-.58,0-1.27.12-1.74.12-1.16,0-6.95-5.1-7.18-5.44A39,39,0,0,1,272,83.61a27.92,27.92,0,0,1-1.27-2.66c-.46-2.2-1.16-4.63-1.5-6.83-.23-1.16-.7-3-1-4.4a48.18,48.18,0,0,1-1.74-12.16c0-6.48,1-8.8,1.39-13.09,1.27-6,1.27-9.73,4.05-15.63.46-1.16,1.16-3.24,1.74-4.86.81-1.85,2.32-2.55,3.24-4.05.46-.58,1-1.74,1.62-2.43a16.06,16.06,0,0,1,2.43-2.43,18.17,18.17,0,0,1,3.82-2.55,8,8,0,0,1,2.43-.93c.46,0,.58.23.81.46h3.47a30.37,30.37,0,0,0,3.59-.46c.46,0,1.16.58,2,.93.46.93.81,2.43,1.39,3.47.23.35.81.58,1,.93.46,2.08,1.74,6,1.74,6.48s-1,2.43-1,3,.23.23.35.23a27,27,0,0,1,.46,4.52,9.82,9.82,0,0,0-.58,2c0,.81.46,1.74.58,2.78,0,.81-.23,1.74-.23,2.43,0,0,0,.23.12.23a52.79,52.79,0,0,1,.12,6,12.61,12.61,0,0,1,.46,2.78C301.41,47.83,300.95,51,300.72,52.69Zm-9.38,22.7a1.1,1.1,0,0,1,.23-.81c.23.23.46.35.46.58C291.91,75.15,291.57,75.39,291.34,75.39Zm6.25,3.36a1.77,1.77,0,0,0-1.51.23Z"/><path d="M362.43,66.58a8.78,8.78,0,0,0,.12,2.43c.12.23-.35.35-.23.81.7.35.35,2-.12,2.32.23.69-.46,3.24-1.16,3.24-.46,0-.23-.23-.58-.23,0,.23-.23.12-.46.35a1.86,1.86,0,0,0,1.27.58v2.66a1.47,1.47,0,0,0-.81.46c-.35,2.43,0,4.28-1.16,6a1.06,1.06,0,0,0-.35-.58c-.93.93-.7,2.55-1.16,3.36a.23.23,0,0,0,.23.23c-1.27.46-2,3.47-2.55,4.86-.23.46-.12,1.27-.35,1.85s-1.16,1.27-1.39,1.74a5.27,5.27,0,0,0-.58,2.32c-.81.12-2,.58-2.55.58s-.58-.23-1-.23c-1.16,0-.81,1-1.74,1.62a5.67,5.67,0,0,1-2.2.81c-.58,0-.35-.12-.81-.12s-.81.58-1.27.58-.23-.46-.81-.46-.46.46-.46.69c-.23-.23-.46-.69-1-.69s0,.23-.46.23-.58-.35-1.16-.35-2-1.27-2.66-1.62-1.39,0-2.2-.46c-.23.23,0,.58,0,1a10,10,0,0,0-2-1.74c0-.12.46-.12.58-.58-.35-.23-.7-.12-1-.35l-.35.35a1.06,1.06,0,0,0,.58.35,2,2,0,0,1-.7.69,4.55,4.55,0,0,1-1.5-2.55c-1.39-.69-3-.93-4.4-1.85s-1.62-3-3.13-3.71c.58-1.39-2.66-3.36-2.08-4.63-1.39-1.39-1.62-2.08-1.39-3.47-.46-1.16-1.51-2.43-2-3.59.46-1.16-.81-2.2-1-3.47a3.17,3.17,0,0,1,.23-1.39,4.87,4.87,0,0,0-.46-1.16,10.83,10.83,0,0,1-1-1.39,6.19,6.19,0,0,0-.58-2.08,4.43,4.43,0,0,0,.35-1.16c-.12-.69-.93-1.74-1.16-2.9-.23-1.39.35-1.62.46-2.66.12-.12-.12-.35-.12-.58-.35-2.2-.46-3.82-1-6.6-.12-.35-.35-.81-.46-1.27a86.41,86.41,0,0,1-1.27-9.5c0-.35-.23-.58-.23-1,0-3.59,1.16-1.62,1.62-5.56a19.65,19.65,0,0,1,.7-3.59,2.72,2.72,0,0,0,1.27-1.27,10,10,0,0,1,.35-2,10.07,10.07,0,0,1,.81-1.39.43.43,0,0,0-.35-.23c.93-.23,1.39-2,1.51-2.55.12,0,.12.81.69.81s.46-.35.58-.58a24.4,24.4,0,0,0,.23-4.17c-.46-4.4,2.66-9,6.83-12.85a4.76,4.76,0,0,1,2-.81c.12,0,.46-.69.81-.93.81-.46,2.43-.46,3.24-.93a12.82,12.82,0,0,1,6-1.39c.46,0,.81-.35,1.39-.35s.93.46,1.39.46,3.71-.46,4.29-.46a26.61,26.61,0,0,1,4.17,1,6.79,6.79,0,0,1,2.32,2.08c.12.12-.12.35.46.35s-.12-.23.35-.23a26.57,26.57,0,0,0,3.24,2.78c-.12.69.7,1.62,1,1.85.12,0,.69,0,.93.35.58.69.93,1.62,1.51,2.32.23,0,.58-.23.58-.46.81,1.85,1,4.28,2.66,5.91,0,.93.23,2.08.23,2.9l.58.46h.12c-.23.69,0,2.2-.46,2.78a3.39,3.39,0,0,0,.35,1.16,1.87,1.87,0,0,1-.35,1c-.23.46.35,1.51.12,2.2-.12.46-.7,1.16-.7,1.62s.93,5.67,1,8.45v3c0,.58.35,1.51.35,2.08a3.17,3.17,0,0,1-.81,2.08,5.16,5.16,0,0,0,.58.93c-.23.58-.23,1.74-.46,7.18,1,.23.93,1.16.93,1.74C363.13,60.56,362.55,64.38,362.43,66.58Zm-46.2,14c.12-.81-.46-1.39-1.39-1.62a8.41,8.41,0,0,1,.58-1c-.23.23,0,.58,0,.81.23.35,1,.93,1,1.39S316.23,80.48,316.23,80.6Zm1.51,2.32-.23.58-.35-.12.35-.58Zm.58,2.78H318v-.58h.35Zm1.39,1.85-.12.23-.69-.46.12-.23Zm3.24,6.25c-1.27,0-1.51-1.27-2.2-2.32l.58-.69c0-.23-.35-.23-.7-.46a2.58,2.58,0,0,1-.12-1c-.58-.12-.46-.69-.7-1.39.12.35.7.69,1,.93-.23,1.62,2,2.9,3.24,4.4A2.21,2.21,0,0,1,322.95,93.8Zm24.32-36.71c-.12-1.27-.23-3.24-.35-4.4s-.35-2.66-.46-3.82a2,2,0,0,0,.12-.81,24,24,0,0,1-.58-4.63c-.23-1.85-.7-3.82-.93-5.44-.46-3.47.46-10.88-5.09-12.62a10.63,10.63,0,0,0-2.66-1c-2.43,0-8.92,1.27-10.54,2.9.23.69.35,2.2.81,2.55v3.59a4.07,4.07,0,0,0-.93,1.16c-.12,2.2-.35,5.67-.23,7.64-.12.23-.23.23-.23.23,1.27,1.51.81,3.82,1.27,5.33s.58,2.9.81,4.17c.46,2.55,1.51,5.67,2.2,8.34.12.23.58.58.58.81a7.52,7.52,0,0,0,.93,3.59c.35.93.35,2.32.69,3.24.23.46.58.81.7,1.16a27,27,0,0,0,.69,2.9c.81,2.08,1.85,3.59,2.32,4.86.23.58,0,1.85.35,2.43.93,2,2.66,6.72,6,6.72h1.5c1.51,0,1.51-3.24,1.27-3.59a1.54,1.54,0,0,0,.58-.35V80.48c-.23,0-.58.23-.81.12l.81-.81a25.29,25.29,0,0,1,.46-2.9c.12-1.62.35-3.71.46-5.21.23-3.82.46-7.87.46-11.7,0-.46.23-.81.23-1.27S347.26,57.55,347.26,57.09Zm-7.18,45.86-.93-.23v-.35l.93.23Zm14.82-92.18h-.35l-.23-.46.23-.12Zm2.78,3.59-.23.12L357,14l.23-.23Zm.58.93H358l-.23-.46.23-.12Z"/><path d="M432.26,106c.23.35.46.81,1,.81-1.62-.12-.93,2.55-.93,3.24a1.41,1.41,0,0,0-.7,1.27c-1-.58-2.89-1.85-3.47-1.85s-.46,0-.69.23a4.64,4.64,0,0,0-1.27-1.39h-.69a4.78,4.78,0,0,0-.12,1.16c-.58-.12-1.39-.81-2-.81-.23-.12-.23-.58-.35-.69-1,.12-2.2-.23-3.47-.12-2.89-1.39-3.71-3-5.44-4.63a1,1,0,0,0-.12-.58c-3.59-4.17-5.67-7.76-6.83-11.7a18.39,18.39,0,0,0-1.5-2.55c-.58-1.16-.93-3.13-1.39-4.4-.35-.81-.93-2.43-1.39-3.59C402,78,399.37,74,398.1,70.64a84.11,84.11,0,0,1-3.24-8.11s-.12,0-.23.23c.46.69-.46,1.62-.58,2.43s-.35,2.08-.35,2.66c0,1.16,2.08,3,2.08,4.75a7.1,7.1,0,0,1-.35,1.51.52.52,0,0,0-.46.58,13,13,0,0,0,.46,1.74,4.2,4.2,0,0,1,0,2.66,2.58,2.58,0,0,1,.12,1c.23.12.58,0,1,0a2.13,2.13,0,0,0-1.16.81,4.67,4.67,0,0,1-.35,1.74c.35.58.81,2.9-.7,3.13.12.35-.12,1,.12,1.62-1-.23-1,.58-1.39,1.39a1.52,1.52,0,0,0,1.16.35c.23.12.23.46.46.69-.35-.12-.93.46-1.39.58,0,.23.23.58.12.81a7.52,7.52,0,0,0-.58,4.05c-.12.23-.58.35-.93.58a5.21,5.21,0,0,0-.12,1.27c-.58-.35-2.08-1.62-2.55-1.62a3,3,0,0,0-1.85,1.16,10.54,10.54,0,0,1-.81,1.62c-.81.12-3.24,1-3.36,1.85-.7,0-.46-.12-1-.12-.81,0-3.47,1-3,2.32-.93-.46-1.62,0-2.32.23V83.14c-.93-.69-.69-3.36-.35-4.86-.12-.12,0-10.19,0-10.42a31.37,31.37,0,0,1-.46-3.24c-.12-.35-.12-.81-.23-1.16l.35-.35V54.54a3.31,3.31,0,0,1-.58-2.43c-.12-4.17-.12-5.56-.12-6-.12-1.51-.12-3.47-.23-5.09,0-.23-.35-.58-.7-.81l.35-.46c-.12-.35-.46-.81-.58-1.16-.46-.81-.23-2.32-.46-3.36-.23-1.27-.69-2.66-1-4.05a22,22,0,0,1-.81-3.47,23.45,23.45,0,0,1-1.27-3c-.69-3.13-1.27-6.6-1.85-9.84-.23-.23-.46-.69-.69-.46.23-.23.46-.35.69-.58-1-.58-.69-1.39-1-1.74a4.6,4.6,0,0,0-2.32-1.27c0-.23,1.51-1.27.93-2.08A3.43,3.43,0,0,1,368.57,8c0-.12.12-.23.35-.46-.23-.23-.35-.35-.58-.35a1.43,1.43,0,0,0,.23-.58h1.51c.35,0,.46-.58.93-.58s3.13.58,3.71.58,5.21-.81,7.41-1c3.82-.46,11.46-.81,11.93-.81s3.47.12,5.44.35c1,.12,3,.81,4.63,1.16A13.53,13.53,0,0,1,408.06,8a3.58,3.58,0,0,0,1.27.23c.46,0,0-.23.46-.23s1,.46,1.51.46a17.57,17.57,0,0,0,3.47,3l-.23.12c.58.35,1.16.46,1.74.81.46.93,1.27,2,1.85,2.9,0,.23-.46.46-.35.81.81.93,1.16,2.66,2.2,2.66,0,.58-.23.58-.23.69a47,47,0,0,0,1.5,5.33c0,.23.46.35.93.35s.46,0,.46-.12.35.23.35.46l-.58.46c0-.23-.12-.35-.35-.58-.35.35-.35.93-.35,1.62a3.94,3.94,0,0,0-1.74.81l-.46.35c0,.23.46.35.81.46,0,.46.35.93-.35,1.16.23.12-.12.46.35.46h1a4.42,4.42,0,0,1-1.62,1.27,3.63,3.63,0,0,1,.69,1.85c.12.12-.12.23.46.23s.69.12,1,.12a1.42,1.42,0,0,0-.23.58c-.23-.23-1-.23-1.39-.23s-.12.58-.46.93a8.43,8.43,0,0,0-1.27,1,4.89,4.89,0,0,0,1.62,1.39c-.93.46-2.32,1-3.47,1.74-.23.58-.93,1.74-1.39,1.74s0-.23-.46-.23a8.39,8.39,0,0,0-3.13,1.51,1.56,1.56,0,0,0,.93.23c-.7.35-.93,1.39-1.27,1.85-.58.81-2,1.51-3,2.32h-.93a2.42,2.42,0,0,1,1.27-.93,1.47,1.47,0,0,0-.46-.81c.81-.69,3-.93,3-1.85,0-.58-.58-.81-1.16-.81s-1.51.93-2,.93-.35-.12-.81-.12-3,.81-4.63.93c0,0-.12-.23-1.16-.23-.23.23-.35.12-.35.58a6.31,6.31,0,0,0,1.85,2.55c1,.81,3.13,1.85,3.59,3.47a8.15,8.15,0,0,1-1,.81c1,1,.58,1.51,1.39,1.51a6.51,6.51,0,0,0,.81-.12v.93c-.58.23-1.62.69-1.62,1.27,0,.35.23.58.23,1a5.18,5.18,0,0,0,1.39.12c.46,0,.7-1,1.16-.93h.7a9.45,9.45,0,0,0-1.85,1.62,2.69,2.69,0,0,0,1.27,1.27c-.46,0-.58.58-1,.93a1.1,1.1,0,0,0,.81.23c-.12.23.12.58.46.81.12.12.12.58.12.81.23.12,0,.69.58.69,1.51,0,.81-.69,1.62-.93l-.35.46c.23.58,1,.81,1.16,1.27a1.27,1.27,0,0,0-1.16.46,2.42,2.42,0,0,0,.81.58V64a3,3,0,0,0-2,.58c.35.35.46,1,1,1.51.35-.58,0-.69,1-1.39l.35.23c.12.12-.12.58.12,1.16.46,0,1.16,0,1.39-.23,0,.35-.46.69-.81,1.27.23.23,0,.35.46.35s.81-.35,1.16-.35l-.23.46c0,.69.46.81-.35,1.27,0,.23.46.35.58.58l-.35.35c.69,1.16.58,1.85,1.74,2.43a.78.78,0,0,0,.35.69c.58-.46.46-1.39.35-2.2,1,.93.58,2.43,1.16,2.9-.23.12-.46-.12-.81-.23A.79.79,0,0,0,417,74a2.94,2.94,0,0,0,1.39.23c-.35.23-.81.58-.81,1,0,.93.58.69,1.16,1.39-.23.69-1.39,1.39-2.2,1.74.23.35.81.46,1.16.69.12.12,0,.58.23.69a7.4,7.4,0,0,0,1.62-.93c-.12-.12-.35-.58-.58-.69.46-.69.81-2.2,1.39-2.08h1c-.12.12-.58.23-1,.46.81.35.69,1.85,1.85,3.13a.84.84,0,0,0,.7-.69A5.72,5.72,0,0,0,424,81.64a.7.7,0,0,1-.12.46c.12.23.12.58.23.58l.58-.23a1.8,1.8,0,0,0,.58,1.62l.46-.35c.69,1.62,2.2,3.94,1.85,5.1.35.12.58.12,1.85-.12a.52.52,0,0,0,.35.46l-.35.46c.35.81,1,2.32,1.51,2.32s.23-.23.46-.23c0,.46-.23.93-.23,1.39-.23,0-.58,0-.69.35.12.23-.12.35.35.35s.81-.46,1-.46a1.82,1.82,0,0,1-1.27,1.16V97c.23.23.58.12.81,0a1.79,1.79,0,0,1-1.16,1.27v.58a4.39,4.39,0,0,0,1.74,0,3.21,3.21,0,0,1-.58,1,1.79,1.79,0,0,0,1.27.35c-.12.12-1.16.46-.46.81a3.08,3.08,0,0,0-1.62.69c.23.35.7.58.93.93s-.23,1,0,1.39a5.31,5.31,0,0,0,.81,1.16,6.35,6.35,0,0,1,1.85.35A11.71,11.71,0,0,0,432.26,106Zm-47.59-5.56-.58.23v-.23l.46-.23Zm16.67-80.83c-.46-2.55-2.08-6.83-5.56-6.72-.58,0-1.16-.69-1.5-.69-.81-.12-2.08-.35-2.43-.35s-.81.46-1.27.46-1.16-.23-1.5-.23a6.54,6.54,0,0,0-2.32.69v.69a20.34,20.34,0,0,1,1,2.32c.12.46-.12.93,0,1,.23.58.81,1.27,1,1.74l.35-.46.35.35c-.35.35-.46.81-1,1.16.46.81,1.27,2.08,1.39,2.43.35,1.62.93,3.24,1.27,4.86.23.23.23.69.81.69s-.12-.23.35-.23c.81,0,1,4.05,1,4.52h.7c1.5-.69,3.59-2.78,4.63-3.36.69-1.16,1.74-2.2,2.43-3.24a35.06,35.06,0,0,1,.35-4.05,1.69,1.69,0,0,0,.12-.69C401.57,20,401.34,19.92,401.34,19.57Zm12.74,24.55-.93.23v-.23l.93-.23Zm3.24-2.55c0,.35-.58.69-1,1.16h-.93c0-.35.69-1,1-1.16Zm3.59,38.56v-.35h-.46v.35ZM426,110.82h-.58v-.35H426Zm2.78-22.47h-.46V88h.46Zm5,11.7-.7.23v-.35l.58-.23Zm.58,4.75H434v-.58h.35Z"/><path d="M475.8,77.82c-.58,2.2-.12,5.91-1.85,8.92-.23.46-.12,1.16-.46,1.85a2.43,2.43,0,0,0-.58.81,14.58,14.58,0,0,1-1.51,3c-.35.46-1.27.81-1.62,1.39s-1.5,3.47-3,5.1c-.12.12-.58.23-.93.46a4.62,4.62,0,0,0-1.51,1.51c-.23.23-.23.81-.58,1.27a11,11,0,0,1-2.89,1c-.58,0-.23-.23-.7-.23s-3.59,1.16-4.05,1.16.23-.35-.35-.35-.93.58-1.5.58-.7-.58-1.16-.58-2,1.39-2.78,1.39c-.46,0-.81-.58-1.27-.58s-.12.23-.58.23-1.27-.58-1.74-.69c.23-1.39-.93-2.43-.69-3.82a13.15,13.15,0,0,0-1.74-1.85,24.05,24.05,0,0,0-.12-4.05c-.12-.69-1.39-2.55-1.85-4.05-1.27-4.05-2.89-12.16-2.66-17.14.35-8.45-.35-10.31-.35-11.12-.12-1.62-.35-3.59-.46-5.44A56.21,56.21,0,0,1,439,49a54.85,54.85,0,0,0,.46-7.53c-.23-1.85-.93-4.52-1.16-6.37-.12-1.51-.23-3.36-.23-5.1,0-.23-.23-.35,0-4.4-.23-3.24-.46-6.72-.58-10.07a2.76,2.76,0,0,0-1-1.51c.23,0,.69.35.93.35a.94.94,0,0,0-.12-.93c.58-.35,1-.23,1.16-1,0-.23-.12-.35-.23-.35.35-.69,1.27-3.36,2.32-3.36.46,0,.35.46.93.46s.81-.46,1.27-.46.81.46,1.39.58a9.35,9.35,0,0,0,2.55,0c.46,0,1.16-.12,1.74-.12s3.13.58,4.75.93a17.56,17.56,0,0,1,2.43.35c3.71,1.16,10.65,2.66,14.71,7.64,1.16,1.51,3.82,3.94,3.59,6.25.35.12.58.69.69,1.16a81.32,81.32,0,0,1,1.27,8.11,23.94,23.94,0,0,1-1.39,4.05c-.12.12-.46.23-.58.46.23.69-.46,2.32-1.39,3.47-.46.46-1.27,1.16-1.85,1.62a.87.87,0,0,0-.12.58,7.63,7.63,0,0,0-1.74,1.62c-.23.35-.69,1.16-.93,1.51-1.51,2.08-2.9,1.16-2.9,3,0,.46,3.13,3.82,4.86,6,.23.35,1.27,1,1.62,1.62a34.14,34.14,0,0,1,4.52,10.54c.35,1.85.81,5.56.81,6.14A12.33,12.33,0,0,1,475.8,77.82ZM463.87,30c-.12-1.27-.23-4.17-1.62-5.44-3-2.66-7.18-2.55-8.92-3.13a19,19,0,0,0-3.82-1.16,3.45,3.45,0,0,0-1.74.58c.81,4.86,1.39,9.84,1.85,14.59,1.16,1.74,1.39,3.59,1.74,5.91h.7c1.74-2.66,6.72-3.36,10.07-6.25.35-.35.35-.93.58-1.16.23-.46.7-.81.81-1.27a6.05,6.05,0,0,0,.7-2.43C464.22,29.64,463.87,30,463.87,30Zm2,39.49a23.65,23.65,0,0,0-2.08-4.86c-.35-.69-5.56-5.67-7.18-5.67-.46,0-.93.46-1.39.46a5.75,5.75,0,0,1-1.5-.35l-.35.23c0,.35-.12.58-.12.93v1a2.39,2.39,0,0,1,.58,1,12.86,12.86,0,0,0,.35,1.85c.12,1.51.7,3.36.81,4.75.12,3.71.46,7.53.58,11.12A27.16,27.16,0,0,0,456,82.8a36.19,36.19,0,0,0-.23,3.94c2.08-1.39,6.83-3.59,8.22-6.25.7-1.39,1.16-2.78,1.74-4.05.46-.93,0-2.2.23-2.78a2.76,2.76,0,0,0,.35-1A20.42,20.42,0,0,0,465.84,69.48Z"/><path d="M520.84,49.1a62.38,62.38,0,0,1-.81,9.15,37.74,37.74,0,0,1-1.27,6c-.12.46-1.16.93-1.27,1.62-.23,1.39.23,2.9-.12,4.28-.23.58-.93,1.16-1.27,1.85-.46.93,0,2.32-.58,3.36-.23.58-.93,1.27-1.16,1.85.12,1.51-1.62,2.9-2,4.05-.23.93-.58,2.66-1.85,3.47,0,.46.12.81-.12,1.16-.35.69-.81,1.62-1.16,2.43s-.46,2.08-.81,2.9a21.08,21.08,0,0,1-1.51,1.85c-.35.23-.46.93-.58,1.39a14.75,14.75,0,0,1-2.78,3.36c0,.12-.58.12-1,.23a58.08,58.08,0,0,1-4.17,4.75c-.23,0,0-.12,0-.58v-.69l-.35-.35c-.35.23-1.16,1-1.51,1-.58,0-.12-.23-.69-.23s-.93.69-1.39.93-1.62.35-2,1.51c-.58-.23-1.27-1.27-1.74-1.27s0,.23-.58.23-.69-.23-1-.23a15,15,0,0,0-2-2.2c0-.58-.46-1.85-.46-2.32s.35-3.94.58-5.21a13.78,13.78,0,0,1,1.5-2.9,20.27,20.27,0,0,0,1-2.32c0-.12.58-.46.81-.93a8.36,8.36,0,0,0,.58-1.62c.12-.23.58-.46.69-.58A2.09,2.09,0,0,0,492,84c.58-.58,1.85-1.39,1.16-2.43a12.62,12.62,0,0,0,1.51-2c.12,0,.23-.58.12-.93a21.39,21.39,0,0,0,1.27-2.2c.12-.46.81-.58,1-1a6.76,6.76,0,0,0,.93-2.55,6.88,6.88,0,0,0,1.5-2.08,1.17,1.17,0,0,0-.12-1,19.07,19.07,0,0,0,1.16-2.2c-.69-.81-1.5-1.62-2.2-2.32-8.57-8.22-13-22.46-14.24-31.73-.46-3.94-1.5-8.22-1.5-12.74a31.38,31.38,0,0,1,.46-4.75c.35-.12,1-.23,1.62-.46,1-.58.93-2.55,1.16-3.94.93-.58,2-1.51,3.13-1.27a.51.51,0,0,0,.12-.35,2.07,2.07,0,0,1,1.39,1.85c0,.58-.69.69-.23,2-.23-.12-.58.35-1,.69,0,.23-.12.46.35.46s.35-.12.46-.12c-.12.46-.35.69-.35,1.16s.46.93.58,1.27a32.19,32.19,0,0,0,.93,5.33c.46,2,1.39,4.05,1.85,6,.46,1.62,1,3.82,1.85,5.91a9.37,9.37,0,0,0,.35,2.2,40.7,40.7,0,0,0,2.43,6c1.62,3.13,3.13,6.83,6.25,10.31l2.78-25.36c0-.46.23-.58.35-1,.12-.93-.12-2.43.12-3.71a5.11,5.11,0,0,1,.35-1.62,4.21,4.21,0,0,0,.93-1c.81-1.51,1.27-3.47,2.2-5.21.12-.35,1-.58,1.27-1a4.8,4.8,0,0,0,.35-1.85.41.41,0,0,0,.23.35c.12-.12.12-.35.35-.58.69.23,1.39.81,2.2,1.16.46.46.58,1.27.93,1.74.7.69,1.62,1.62,2.2,1.62s-.12-.23.35-.23a2.47,2.47,0,0,1,1.74,1.51c.35,2.78-.23,5.67,0,8.45Z"/></svg>