<svg xmlns="http://www.w3.org/2000/svg" xmlns:xlink="http://www.w3.org/1999/xlink" version="1.1" enable-background="new 0 0 129 129" width="270.0894317768152" height="257.2195129515561"><rect id="backgroundrect" width="100%" height="100%" x="0" y="0" fill="none" stroke="none" class=""/>
  
<g class="currentLayer"><title>Layer 1</title><g id="svg_1" class="" fill="#dadada" fill-opacity="0.5">
    <g id="svg_2" fill="#dadada" fill-opacity="1">
      <circle cx="145.75694354281472" cy="107.9434405353291" r="6.692434787750244" fill="#dadada" id="svg_3" fill-opacity="0.5"/>
      <path d="m74.69478572115946,186.12324787889935 c0,0 0,0.10140053033828744 0,0 c0,0.10140053033828744 0,0.10140053033828744 0.10210080146789552,0.10140053033828744 c0.10210080146789552,0.20280106067657472 0.20420160293579104,0.5070026516914368 0.306302404403687,0.7098037123680131 c0,0.10140053033828744 0.10210080146789552,0.10140053033828744 0.10210080146789552,0.20280106067657472 c0,0.10140053033828744 0.10210080146789552,0.10140053033828744 0.10210080146789552,0.20280106067657472 c0,0 0.10210080146789552,0.10140053033828744 0.10210080146789552,0.10140053033828744 c0.10210080146789552,0.20280106067657472 0.306302404403687,0.3042015910148628 0.4084032058715823,0.5070026516914368 c0,0 0.10210080146789552,0.10140053033828744 0.10210080146789552,0.10140053033828744 c0.10210080146789552,0.10140053033828744 0.10210080146789552,0.10140053033828744 0.20420160293579104,0.20280106067657472 c0.10210080146789552,0 0.10210080146789552,0.10140053033828744 0.10210080146789552,0.10140053033828744 c0.10210080146789552,0.10140053033828744 0.20420160293579104,0.10140053033828744 0.306302404403687,0.20280106067657472 c0,0 0.10210080146789552,0.10140053033828744 0.10210080146789552,0.10140053033828744 c0,0 0.10210080146789552,0 0.10210080146789552,0.10140053033828744 c0.10210080146789552,0.10140053033828744 0.306302404403687,0.10140053033828744 0.4084032058715823,0.20280106067657472 c0.10210080146789552,0 0.10210080146789552,0 0.20420160293579104,0.10140053033828744 c0.10210080146789552,0 0.20420160293579104,0.10140053033828744 0.20420160293579104,0.10140053033828744 c0.306302404403687,0.10140053033828744 0.612604808807374,0.10140053033828744 0.9189072132110596,0.10140053033828744 h110.47306718826295 c2.3483184337615963,0 4.186132860183715,-1.8252095460891726 4.186132860183715,-4.157421743869781 v-27.378143191337585 v-82.03302904367447 c0,-2.332212197780609 -1.8378144264221192,-4.157421743869781 -4.186132860183715,-4.157421743869781 h-110.16676478385926 c-2.3483184337615963,0 -4.186132860183715,1.8252095460891726 -4.186132860183715,4.157421743869781 v81.8302279829979 v27.378143191337585 c0,0.3042015910148628 0.10210080146789552,0.7098037123680131 0.10210080146789552,1.0140053033828735 c0,0.10140053033828744 0,0.20280106067657472 0,0.20280106067657472 zm110.37096638679503,-5.2728275775909434 h-92.29912452697755 l68.2033353805542,-44.312031757831576 l24.095789146423343,22.815119326114655 v21.496912431716922 zm-102.10080146789551,-100.9949282169342 h102.10080146789551 v68.03975585699081 l-20.72646269798279,-19.671702885627745 c-1.429411220550537,-1.3182068943977356 -3.5735280513763428,-1.5210079550743103 -5.20714087486267,-0.5070026516914368 l-19.501253080368045,12.776466822624206 l-13.579406595230104,-13.587671065330506 c-1.429411220550537,-1.4196074247360229 -3.5735280513763428,-1.6224084854125977 -5.20714087486267,-0.6084031820297244 l-37.879397344589236,23.72772409915924 v-70.16916699409485 zm0,80.00501843690873 l39.51301016807557,-24.741729402542113 l10.005878543853761,10.038652503490448 l-49.51888871192932,32.14396811723709 v-17.440891218185424 z" fill="#dadada" id="svg_4" fill-opacity="0.5"/>
    </g>
  </g></g></svg>