<svg xmlns="http://www.w3.org/2000/svg" viewBox="0 0 50 50"><defs><style>.cls-1{fill:#807c9c;}</style></defs><title>Asset 12</title><g id="Layer_2" data-name="Layer 2"><g id="Layer_1-2" data-name="Layer 1"><path class="cls-1" d="M47.25,2.75A9.05,9.05,0,0,0,40.62,0H9.38A9.05,9.05,0,0,0,2.75,2.75,9.05,9.05,0,0,0,0,9.38V40.63a9,9,0,0,0,2.75,6.62A9.05,9.05,0,0,0,9.38,50H40.62A9.39,9.39,0,0,0,50,40.63V9.38A9.05,9.05,0,0,0,47.25,2.75ZM26.42,13.54a6.16,6.16,0,0,1,4-2A6,6,0,0,1,29,15.81,5.14,5.14,0,0,1,25,17.72,5.64,5.64,0,0,1,26.42,13.54Zm7.86,21.61c-1.15,1.65-2.33,3.28-4.2,3.32s-2.43-1.07-4.54-1.07-2.76,1-4.5,1.1-3.17-1.78-4.33-3.41c-2.36-3.36-4.16-9.48-1.74-13.61a6.72,6.72,0,0,1,5.68-3.39c1.77,0,3.45,1.18,4.53,1.18S28.3,17.81,30.44,18a6.44,6.44,0,0,1,5,2.67,6.15,6.15,0,0,0-3,5.15,6,6,0,0,0,3.69,5.46A15.24,15.24,0,0,1,34.28,35.15Z"/></g></g></svg>