<svg xmlns="http://www.w3.org/2000/svg" viewBox="0 0 50 50"><defs><style>.cls-1{fill:#1d214d;}</style></defs><title>Asset 10</title><g id="Layer_2" data-name="Layer 2"><g id="Layer_1-2" data-name="Layer 1"><path class="cls-1" d="M47.25,2.75A9.05,9.05,0,0,0,40.62,0H9.38A9.05,9.05,0,0,0,2.75,2.75,9.05,9.05,0,0,0,0,9.38V40.63a9,9,0,0,0,2.75,6.62A9.05,9.05,0,0,0,9.38,50H40.62A9.39,9.39,0,0,0,50,40.63V9.38A9.05,9.05,0,0,0,47.25,2.75ZM39.51,31.41c0,2.54-2,4.09-4.46,4.09H15.72c-2.46,0-5.23-1.55-5.23-4.09V18.78c0-2.54,2.77-4.27,5.23-4.27H35a4.26,4.26,0,0,1,4.46,4.27ZM23.12,29.87l6.31-4.77-6.36-4.86Z"/></g></g></svg>